<mxfile host="app.diagrams.net" modified="2021-10-02T16:09:31.604Z" agent="5.0 (Windows NT 10.0; Win64; x64) AppleWebKit/537.36 (KHTML, like Gecko) Chrome/94.0.4606.71 Safari/537.36" etag="0PYF4k07z8eZ9h2fiA9_" version="15.4.1" type="github">
  <diagram id="IGpOKl3QkhKzm34cFzGY" name="Page-1">
    <mxGraphModel dx="2665" dy="1090" grid="1" gridSize="10" guides="1" tooltips="1" connect="1" arrows="1" fold="1" page="1" pageScale="1" pageWidth="850" pageHeight="1100" math="0" shadow="1">
      <root>
        <mxCell id="0" />
        <mxCell id="1" parent="0" />
        <mxCell id="r26-GeC86uBAApJ16SBH-1" value="Jefe" style="swimlane;fontStyle=1;align=center;verticalAlign=top;childLayout=stackLayout;horizontal=1;startSize=26;horizontalStack=0;resizeParent=1;resizeParentMax=0;resizeLast=0;collapsible=1;marginBottom=0;" parent="1" vertex="1">
          <mxGeometry x="620" y="40" width="160" height="124" as="geometry" />
        </mxCell>
        <mxCell id="r26-GeC86uBAApJ16SBH-2" value="- codigo Integer &#xa;- nombre String &#xa;- direccion String &#xa;- telefono Long&#xa;" style="text;strokeColor=none;fillColor=none;align=left;verticalAlign=top;spacingLeft=4;spacingRight=4;overflow=hidden;rotatable=0;points=[[0,0.5],[1,0.5]];portConstraint=eastwest;" parent="r26-GeC86uBAApJ16SBH-1" vertex="1">
          <mxGeometry y="26" width="160" height="64" as="geometry" />
        </mxCell>
        <mxCell id="r26-GeC86uBAApJ16SBH-3" value="" style="line;strokeWidth=1;fillColor=none;align=left;verticalAlign=middle;spacingTop=-1;spacingLeft=3;spacingRight=3;rotatable=0;labelPosition=right;points=[];portConstraint=eastwest;" parent="r26-GeC86uBAApJ16SBH-1" vertex="1">
          <mxGeometry y="90" width="160" height="8" as="geometry" />
        </mxCell>
        <mxCell id="r26-GeC86uBAApJ16SBH-4" value="+ dirigir()" style="text;strokeColor=none;fillColor=none;align=left;verticalAlign=top;spacingLeft=4;spacingRight=4;overflow=hidden;rotatable=0;points=[[0,0.5],[1,0.5]];portConstraint=eastwest;" parent="r26-GeC86uBAApJ16SBH-1" vertex="1">
          <mxGeometry y="98" width="160" height="26" as="geometry" />
        </mxCell>
        <mxCell id="r26-GeC86uBAApJ16SBH-9" value="Proyecto" style="swimlane;fontStyle=1;align=center;verticalAlign=top;childLayout=stackLayout;horizontal=1;startSize=26;horizontalStack=0;resizeParent=1;resizeParentMax=0;resizeLast=0;collapsible=1;marginBottom=0;" parent="1" vertex="1">
          <mxGeometry x="367" y="55" width="160" height="94" as="geometry" />
        </mxCell>
        <mxCell id="r26-GeC86uBAApJ16SBH-10" value="- codigoProyecto Integer&#xa;- nombreProyecto String&#xa;" style="text;strokeColor=none;fillColor=none;align=left;verticalAlign=top;spacingLeft=4;spacingRight=4;overflow=hidden;rotatable=0;points=[[0,0.5],[1,0.5]];portConstraint=eastwest;" parent="r26-GeC86uBAApJ16SBH-9" vertex="1">
          <mxGeometry y="26" width="160" height="34" as="geometry" />
        </mxCell>
        <mxCell id="r26-GeC86uBAApJ16SBH-11" value="" style="line;strokeWidth=1;fillColor=none;align=left;verticalAlign=middle;spacingTop=-1;spacingLeft=3;spacingRight=3;rotatable=0;labelPosition=right;points=[];portConstraint=eastwest;" parent="r26-GeC86uBAApJ16SBH-9" vertex="1">
          <mxGeometry y="60" width="160" height="8" as="geometry" />
        </mxCell>
        <mxCell id="r26-GeC86uBAApJ16SBH-12" value="  &#xa;" style="text;strokeColor=none;fillColor=none;align=left;verticalAlign=top;spacingLeft=4;spacingRight=4;overflow=hidden;rotatable=0;points=[[0,0.5],[1,0.5]];portConstraint=eastwest;" parent="r26-GeC86uBAApJ16SBH-9" vertex="1">
          <mxGeometry y="68" width="160" height="26" as="geometry" />
        </mxCell>
        <mxCell id="r26-GeC86uBAApJ16SBH-14" value="Planos" style="swimlane;fontStyle=1;align=center;verticalAlign=top;childLayout=stackLayout;horizontal=1;startSize=26;horizontalStack=0;resizeParent=1;resizeParentMax=0;resizeLast=0;collapsible=1;marginBottom=0;" parent="1" vertex="1">
          <mxGeometry x="375" y="234" width="160" height="144" as="geometry" />
        </mxCell>
        <mxCell id="r26-GeC86uBAApJ16SBH-15" value="- identificacion  Integer&#xa;- fechaEntrega Date&#xa;- codigoArquitectos Lista&#xa;- dibujo &#xa;- numeroFiguras Integer&#xa;" style="text;strokeColor=none;fillColor=none;align=left;verticalAlign=top;spacingLeft=4;spacingRight=4;overflow=hidden;rotatable=0;points=[[0,0.5],[1,0.5]];portConstraint=eastwest;" parent="r26-GeC86uBAApJ16SBH-14" vertex="1">
          <mxGeometry y="26" width="160" height="84" as="geometry" />
        </mxCell>
        <mxCell id="r26-GeC86uBAApJ16SBH-16" value="" style="line;strokeWidth=1;fillColor=none;align=left;verticalAlign=middle;spacingTop=-1;spacingLeft=3;spacingRight=3;rotatable=0;labelPosition=right;points=[];portConstraint=eastwest;" parent="r26-GeC86uBAApJ16SBH-14" vertex="1">
          <mxGeometry y="110" width="160" height="8" as="geometry" />
        </mxCell>
        <mxCell id="r26-GeC86uBAApJ16SBH-17" value="+ tieneFiguras()" style="text;strokeColor=none;fillColor=none;align=left;verticalAlign=top;spacingLeft=4;spacingRight=4;overflow=hidden;rotatable=0;points=[[0,0.5],[1,0.5]];portConstraint=eastwest;" parent="r26-GeC86uBAApJ16SBH-14" vertex="1">
          <mxGeometry y="118" width="160" height="26" as="geometry" />
        </mxCell>
        <mxCell id="r26-GeC86uBAApJ16SBH-18" value="Figuras" style="swimlane;fontStyle=1;align=center;verticalAlign=top;childLayout=stackLayout;horizontal=1;startSize=26;horizontalStack=0;resizeParent=1;resizeParentMax=0;resizeLast=0;collapsible=1;marginBottom=0;" parent="1" vertex="1">
          <mxGeometry x="375" y="447" width="160" height="114" as="geometry" />
        </mxCell>
        <mxCell id="r26-GeC86uBAApJ16SBH-19" value="- identificador Entero &#xa;- nombre String&#xa;- color String&#xa;&#xa;" style="text;strokeColor=none;fillColor=none;align=left;verticalAlign=top;spacingLeft=4;spacingRight=4;overflow=hidden;rotatable=0;points=[[0,0.5],[1,0.5]];portConstraint=eastwest;" parent="r26-GeC86uBAApJ16SBH-18" vertex="1">
          <mxGeometry y="26" width="160" height="54" as="geometry" />
        </mxCell>
        <mxCell id="r26-GeC86uBAApJ16SBH-20" value="" style="line;strokeWidth=1;fillColor=none;align=left;verticalAlign=middle;spacingTop=-1;spacingLeft=3;spacingRight=3;rotatable=0;labelPosition=right;points=[];portConstraint=eastwest;" parent="r26-GeC86uBAApJ16SBH-18" vertex="1">
          <mxGeometry y="80" width="160" height="8" as="geometry" />
        </mxCell>
        <mxCell id="r26-GeC86uBAApJ16SBH-21" value="+ calcularPerimetro ()" style="text;strokeColor=none;fillColor=none;align=left;verticalAlign=top;spacingLeft=4;spacingRight=4;overflow=hidden;rotatable=0;points=[[0,0.5],[1,0.5]];portConstraint=eastwest;" parent="r26-GeC86uBAApJ16SBH-18" vertex="1">
          <mxGeometry y="88" width="160" height="26" as="geometry" />
        </mxCell>
        <mxCell id="r26-GeC86uBAApJ16SBH-22" value="Poligonos" style="swimlane;fontStyle=1;align=center;verticalAlign=top;childLayout=stackLayout;horizontal=1;startSize=26;horizontalStack=0;resizeParent=1;resizeParentMax=0;resizeLast=0;collapsible=1;marginBottom=0;" parent="1" vertex="1">
          <mxGeometry x="120" y="461" width="160" height="86" as="geometry" />
        </mxCell>
        <mxCell id="r26-GeC86uBAApJ16SBH-23" value="- numeroLineas Integer" style="text;strokeColor=none;fillColor=none;align=left;verticalAlign=top;spacingLeft=4;spacingRight=4;overflow=hidden;rotatable=0;points=[[0,0.5],[1,0.5]];portConstraint=eastwest;" parent="r26-GeC86uBAApJ16SBH-22" vertex="1">
          <mxGeometry y="26" width="160" height="26" as="geometry" />
        </mxCell>
        <mxCell id="r26-GeC86uBAApJ16SBH-24" value="" style="line;strokeWidth=1;fillColor=none;align=left;verticalAlign=middle;spacingTop=-1;spacingLeft=3;spacingRight=3;rotatable=0;labelPosition=right;points=[];portConstraint=eastwest;" parent="r26-GeC86uBAApJ16SBH-22" vertex="1">
          <mxGeometry y="52" width="160" height="8" as="geometry" />
        </mxCell>
        <mxCell id="r26-GeC86uBAApJ16SBH-25" value="+ calcularArea ()" style="text;strokeColor=none;fillColor=none;align=left;verticalAlign=top;spacingLeft=4;spacingRight=4;overflow=hidden;rotatable=0;points=[[0,0.5],[1,0.5]];portConstraint=eastwest;" parent="r26-GeC86uBAApJ16SBH-22" vertex="1">
          <mxGeometry y="60" width="160" height="26" as="geometry" />
        </mxCell>
        <mxCell id="r26-GeC86uBAApJ16SBH-26" value="Lineas" style="swimlane;fontStyle=1;align=center;verticalAlign=top;childLayout=stackLayout;horizontal=1;startSize=26;horizontalStack=0;resizeParent=1;resizeParentMax=0;resizeLast=0;collapsible=1;marginBottom=0;" parent="1" vertex="1">
          <mxGeometry x="120" y="234" width="160" height="114" as="geometry" />
        </mxCell>
        <mxCell id="r26-GeC86uBAApJ16SBH-27" value="- identificador Integer&#xa;- longitud Long&#xa;- coordenadas(x,y) &#xa;" style="text;strokeColor=none;fillColor=none;align=left;verticalAlign=top;spacingLeft=4;spacingRight=4;overflow=hidden;rotatable=0;points=[[0,0.5],[1,0.5]];portConstraint=eastwest;" parent="r26-GeC86uBAApJ16SBH-26" vertex="1">
          <mxGeometry y="26" width="160" height="54" as="geometry" />
        </mxCell>
        <mxCell id="r26-GeC86uBAApJ16SBH-28" value="" style="line;strokeWidth=1;fillColor=none;align=left;verticalAlign=middle;spacingTop=-1;spacingLeft=3;spacingRight=3;rotatable=0;labelPosition=right;points=[];portConstraint=eastwest;" parent="r26-GeC86uBAApJ16SBH-26" vertex="1">
          <mxGeometry y="80" width="160" height="8" as="geometry" />
        </mxCell>
        <mxCell id="r26-GeC86uBAApJ16SBH-29" value="+ calcularLongitud(): Long" style="text;strokeColor=none;fillColor=none;align=left;verticalAlign=top;spacingLeft=4;spacingRight=4;overflow=hidden;rotatable=0;points=[[0,0.5],[1,0.5]];portConstraint=eastwest;" parent="r26-GeC86uBAApJ16SBH-26" vertex="1">
          <mxGeometry y="88" width="160" height="26" as="geometry" />
        </mxCell>
        <mxCell id="r26-GeC86uBAApJ16SBH-32" value="Arquitectos" style="swimlane;fontStyle=1;align=center;verticalAlign=top;childLayout=stackLayout;horizontal=1;startSize=26;horizontalStack=0;resizeParent=1;resizeParentMax=0;resizeLast=0;collapsible=1;marginBottom=0;" parent="1" vertex="1">
          <mxGeometry x="620" y="254" width="160" height="104" as="geometry" />
        </mxCell>
        <mxCell id="r26-GeC86uBAApJ16SBH-33" value="- codigo Integer&#xa;- nombre String&#xa;" style="text;strokeColor=none;fillColor=none;align=left;verticalAlign=top;spacingLeft=4;spacingRight=4;overflow=hidden;rotatable=0;points=[[0,0.5],[1,0.5]];portConstraint=eastwest;" parent="r26-GeC86uBAApJ16SBH-32" vertex="1">
          <mxGeometry y="26" width="160" height="44" as="geometry" />
        </mxCell>
        <mxCell id="r26-GeC86uBAApJ16SBH-34" value="" style="line;strokeWidth=1;fillColor=none;align=left;verticalAlign=middle;spacingTop=-1;spacingLeft=3;spacingRight=3;rotatable=0;labelPosition=right;points=[];portConstraint=eastwest;" parent="r26-GeC86uBAApJ16SBH-32" vertex="1">
          <mxGeometry y="70" width="160" height="8" as="geometry" />
        </mxCell>
        <mxCell id="r26-GeC86uBAApJ16SBH-35" value=" " style="text;strokeColor=none;fillColor=none;align=left;verticalAlign=top;spacingLeft=4;spacingRight=4;overflow=hidden;rotatable=0;points=[[0,0.5],[1,0.5]];portConstraint=eastwest;" parent="r26-GeC86uBAApJ16SBH-32" vertex="1">
          <mxGeometry y="78" width="160" height="26" as="geometry" />
        </mxCell>
        <mxCell id="r26-GeC86uBAApJ16SBH-50" value="dirigir" style="endArrow=block;endFill=1;html=1;edgeStyle=orthogonalEdgeStyle;align=left;verticalAlign=top;exitX=0;exitY=0.5;exitDx=0;exitDy=0;" parent="1" source="r26-GeC86uBAApJ16SBH-2" target="r26-GeC86uBAApJ16SBH-10" edge="1">
          <mxGeometry x="0.2903" y="-28" relative="1" as="geometry">
            <mxPoint x="340" y="240" as="sourcePoint" />
            <mxPoint x="500" y="240" as="targetPoint" />
            <mxPoint as="offset" />
          </mxGeometry>
        </mxCell>
        <mxCell id="r26-GeC86uBAApJ16SBH-51" value="1" style="edgeLabel;resizable=0;html=1;align=left;verticalAlign=bottom;" parent="r26-GeC86uBAApJ16SBH-50" connectable="0" vertex="1">
          <mxGeometry x="-1" relative="1" as="geometry">
            <mxPoint x="-20" as="offset" />
          </mxGeometry>
        </mxCell>
        <mxCell id="r26-GeC86uBAApJ16SBH-52" value="&lt;font style=&quot;vertical-align: inherit&quot;&gt;&lt;font style=&quot;vertical-align: inherit&quot;&gt;0..1&lt;/font&gt;&lt;/font&gt;" style="edgeLabel;resizable=0;html=1;align=left;verticalAlign=bottom;" parent="1" connectable="0" vertex="1">
          <mxGeometry x="610" y="108" as="geometry">
            <mxPoint x="-67" y="8" as="offset" />
          </mxGeometry>
        </mxCell>
        <mxCell id="r26-GeC86uBAApJ16SBH-56" value="" style="endArrow=diamondThin;endFill=0;html=1;edgeStyle=orthogonalEdgeStyle;align=left;verticalAlign=top;exitX=0.5;exitY=0;exitDx=0;exitDy=0;entryX=0.55;entryY=1.038;entryDx=0;entryDy=0;entryPerimeter=0;strokeWidth=1;endSize=10;" parent="1" source="r26-GeC86uBAApJ16SBH-14" target="r26-GeC86uBAApJ16SBH-12" edge="1">
          <mxGeometry x="0.2855" y="-15" relative="1" as="geometry">
            <mxPoint x="630" y="108" as="sourcePoint" />
            <mxPoint x="544" y="108" as="targetPoint" />
            <mxPoint as="offset" />
          </mxGeometry>
        </mxCell>
        <mxCell id="r26-GeC86uBAApJ16SBH-57" value="&lt;font style=&quot;vertical-align: inherit&quot;&gt;&lt;font style=&quot;vertical-align: inherit&quot;&gt;1..*&lt;/font&gt;&lt;/font&gt;" style="edgeLabel;resizable=0;html=1;align=left;verticalAlign=bottom;" parent="r26-GeC86uBAApJ16SBH-56" connectable="0" vertex="1">
          <mxGeometry x="-1" relative="1" as="geometry">
            <mxPoint x="-20" as="offset" />
          </mxGeometry>
        </mxCell>
        <mxCell id="XcP87A8AxSp8wuipea3n-1" value="tiene" style="endArrow=block;endFill=1;html=1;edgeStyle=orthogonalEdgeStyle;align=left;verticalAlign=top;exitX=0.5;exitY=0;exitDx=0;exitDy=0;entryX=0.5;entryY=0.962;entryDx=0;entryDy=0;entryPerimeter=0;" parent="1" source="r26-GeC86uBAApJ16SBH-18" target="r26-GeC86uBAApJ16SBH-17" edge="1">
          <mxGeometry x="0.0573" y="-25" relative="1" as="geometry">
            <mxPoint x="630" y="108" as="sourcePoint" />
            <mxPoint x="450" y="420" as="targetPoint" />
            <mxPoint as="offset" />
          </mxGeometry>
        </mxCell>
        <mxCell id="XcP87A8AxSp8wuipea3n-2" value="0..*" style="edgeLabel;resizable=0;html=1;align=left;verticalAlign=bottom;" parent="XcP87A8AxSp8wuipea3n-1" connectable="0" vertex="1">
          <mxGeometry x="-1" relative="1" as="geometry">
            <mxPoint x="-25" y="-5" as="offset" />
          </mxGeometry>
        </mxCell>
        <mxCell id="XcP87A8AxSp8wuipea3n-3" value="1..1" style="edgeLabel;resizable=0;html=1;align=left;verticalAlign=bottom;" parent="1" connectable="0" vertex="1">
          <mxGeometry x="470" y="400" as="geometry">
            <mxPoint x="3" y="-3" as="offset" />
          </mxGeometry>
        </mxCell>
        <mxCell id="XcP87A8AxSp8wuipea3n-4" value="" style="endArrow=block;endFill=0;html=1;edgeStyle=orthogonalEdgeStyle;align=left;verticalAlign=top;entryX=0;entryY=0.5;entryDx=0;entryDy=0;exitX=1;exitY=0.5;exitDx=0;exitDy=0;endSize=8;" parent="1" source="r26-GeC86uBAApJ16SBH-23" target="r26-GeC86uBAApJ16SBH-19" edge="1">
          <mxGeometry x="0.3684" y="-30" relative="1" as="geometry">
            <mxPoint x="320" y="570" as="sourcePoint" />
            <mxPoint x="465" y="387.01199999999994" as="targetPoint" />
            <mxPoint as="offset" />
          </mxGeometry>
        </mxCell>
        <mxCell id="XcP87A8AxSp8wuipea3n-7" value="" style="endArrow=block;endFill=0;html=1;edgeStyle=orthogonalEdgeStyle;align=left;verticalAlign=top;endSize=8;" parent="1" source="r26-GeC86uBAApJ16SBH-29" edge="1">
          <mxGeometry x="0.3684" y="-30" relative="1" as="geometry">
            <mxPoint x="290" y="510" as="sourcePoint" />
            <mxPoint x="200" y="460" as="targetPoint" />
            <mxPoint as="offset" />
            <Array as="points">
              <mxPoint x="200" y="420" />
              <mxPoint x="200" y="420" />
            </Array>
          </mxGeometry>
        </mxCell>
        <mxCell id="XcP87A8AxSp8wuipea3n-8" value="3..*" style="edgeLabel;resizable=0;html=1;align=left;verticalAlign=bottom;rotation=0;" parent="1" connectable="0" vertex="1">
          <mxGeometry x="230" y="370" as="geometry">
            <mxPoint x="-20" y="-2" as="offset" />
          </mxGeometry>
        </mxCell>
        <mxCell id="XcP87A8AxSp8wuipea3n-13" value="requiere" style="endArrow=block;endFill=1;html=1;edgeStyle=orthogonalEdgeStyle;align=left;verticalAlign=top;endSize=8;strokeWidth=1;exitX=1;exitY=0.5;exitDx=0;exitDy=0;entryX=0;entryY=0.5;entryDx=0;entryDy=0;" parent="1" source="r26-GeC86uBAApJ16SBH-15" target="r26-GeC86uBAApJ16SBH-33" edge="1">
          <mxGeometry x="-0.4118" y="-8" relative="1" as="geometry">
            <mxPoint x="340" y="340" as="sourcePoint" />
            <mxPoint x="610" y="302" as="targetPoint" />
            <mxPoint as="offset" />
          </mxGeometry>
        </mxCell>
        <mxCell id="XcP87A8AxSp8wuipea3n-14" value="1..*" style="edgeLabel;resizable=0;html=1;align=left;verticalAlign=bottom;" parent="XcP87A8AxSp8wuipea3n-13" connectable="0" vertex="1">
          <mxGeometry x="-1" relative="1" as="geometry" />
        </mxCell>
        <mxCell id="JXhW4Dkfkhgc1lGGschW-1" style="edgeStyle=orthogonalEdgeStyle;rounded=0;orthogonalLoop=1;jettySize=auto;html=1;exitX=0;exitY=0;exitDx=130;exitDy=32;exitPerimeter=0;" edge="1" parent="1" source="JXhW4Dkfkhgc1lGGschW-2">
          <mxGeometry relative="1" as="geometry">
            <mxPoint x="260" y="212" as="targetPoint" />
          </mxGeometry>
        </mxCell>
        <mxCell id="JXhW4Dkfkhgc1lGGschW-2" value="Usuarios" style="shape=folder;fontStyle=1;spacingTop=10;tabWidth=40;tabHeight=14;tabPosition=left;html=1;" vertex="1" parent="1">
          <mxGeometry x="120" y="180" width="150" height="50" as="geometry" />
        </mxCell>
        <mxCell id="JXhW4Dkfkhgc1lGGschW-3" value="&lt;span style=&quot;font-family: &amp;#34;helvetica&amp;#34;&quot;&gt;_id: (automatico)&lt;/span&gt;&lt;br&gt;&lt;div&gt;&lt;span&gt;codigo: type integer&lt;/span&gt;&lt;br&gt;&lt;span&gt;mail: type string&lt;/span&gt;&lt;br&gt;&lt;span&gt;tipo: type string&lt;/span&gt;&lt;br&gt;&lt;span&gt;contraseña: type password&lt;/span&gt;&lt;/div&gt;" style="shape=note;whiteSpace=wrap;html=1;backgroundOutline=1;darkOpacity=0.05;align=left;verticalAlign=middle;" vertex="1" parent="1">
          <mxGeometry x="120" y="280" width="150" height="110" as="geometry" />
        </mxCell>
        <mxCell id="JXhW4Dkfkhgc1lGGschW-4" value="" style="endArrow=circlePlus;startArrow=none;endFill=0;startFill=0;endSize=8;html=1;labelBackgroundColor=none;exitX=0.5;exitY=0;exitDx=0;exitDy=0;exitPerimeter=0;entryX=0.5;entryY=1;entryDx=0;entryDy=0;entryPerimeter=0;" edge="1" parent="1" source="JXhW4Dkfkhgc1lGGschW-3" target="JXhW4Dkfkhgc1lGGschW-2">
          <mxGeometry width="160" relative="1" as="geometry">
            <mxPoint x="390" y="200" as="sourcePoint" />
            <mxPoint x="180" y="240" as="targetPoint" />
          </mxGeometry>
        </mxCell>
        <mxCell id="JXhW4Dkfkhgc1lGGschW-5" value="PerfilUsuario" style="shape=folder;fontStyle=1;spacingTop=10;tabWidth=40;tabHeight=14;tabPosition=left;html=1;" vertex="1" parent="1">
          <mxGeometry x="390" y="180" width="150" height="50" as="geometry" />
        </mxCell>
        <mxCell id="JXhW4Dkfkhgc1lGGschW-6" value="&lt;span style=&quot;font-family: &amp;#34;helvetica&amp;#34;&quot;&gt;_id: (automatico)&lt;/span&gt;&lt;br&gt;&lt;div&gt;&lt;span&gt;codigo: type integer&lt;/span&gt;&lt;br&gt;&lt;/div&gt;&lt;div&gt;&lt;span&gt;nombre: type string&lt;/span&gt;&lt;/div&gt;&lt;div&gt;&lt;span&gt;apellido: typo string&lt;/span&gt;&lt;/div&gt;&lt;div&gt;&lt;span&gt;fechaNacimiento: type date&lt;/span&gt;&lt;/div&gt;&lt;div&gt;&lt;span&gt;estatura: type double&lt;/span&gt;&lt;/div&gt;&lt;div&gt;&lt;span&gt;peso: type double&lt;/span&gt;&lt;/div&gt;&lt;div&gt;&lt;span&gt;celular: type string&lt;/span&gt;&lt;/div&gt;&lt;div&gt;&lt;span&gt;nombreMedico: type string&lt;/span&gt;&lt;/div&gt;&lt;div&gt;&lt;span&gt;apellidoMedico: type string&lt;/span&gt;&lt;/div&gt;&lt;div&gt;&lt;span&gt;visibilidad: type boolean&lt;/span&gt;&lt;/div&gt;&lt;div&gt;&lt;span&gt;alerta: type boolean&lt;/span&gt;&lt;/div&gt;" style="shape=note;whiteSpace=wrap;html=1;backgroundOutline=1;darkOpacity=0.05;align=left;verticalAlign=middle;" vertex="1" parent="1">
          <mxGeometry x="390" y="280" width="150" height="200" as="geometry" />
        </mxCell>
        <mxCell id="JXhW4Dkfkhgc1lGGschW-7" value="" style="endArrow=circlePlus;startArrow=none;endFill=0;startFill=0;endSize=8;html=1;labelBackgroundColor=none;exitX=0.5;exitY=0;exitDx=0;exitDy=0;exitPerimeter=0;entryX=0.5;entryY=1;entryDx=0;entryDy=0;entryPerimeter=0;" edge="1" parent="1" source="JXhW4Dkfkhgc1lGGschW-6" target="JXhW4Dkfkhgc1lGGschW-5">
          <mxGeometry width="160" relative="1" as="geometry">
            <mxPoint x="382" y="262" as="sourcePoint" />
            <mxPoint x="382" y="212" as="targetPoint" />
          </mxGeometry>
        </mxCell>
        <mxCell id="JXhW4Dkfkhgc1lGGschW-8" value="TomaPresion" style="shape=folder;fontStyle=1;spacingTop=10;tabWidth=40;tabHeight=14;tabPosition=left;html=1;" vertex="1" parent="1">
          <mxGeometry x="640" y="180" width="150" height="50" as="geometry" />
        </mxCell>
        <mxCell id="JXhW4Dkfkhgc1lGGschW-9" value="&lt;span style=&quot;font-family: &amp;#34;helvetica&amp;#34;&quot;&gt;_id: (automatico)&lt;/span&gt;&lt;br&gt;&lt;div&gt;&lt;span&gt;codigo: type integer&lt;/span&gt;&lt;br&gt;&lt;/div&gt;&lt;div&gt;fecha: type date&lt;/div&gt;&lt;div&gt;sistole: type integer&lt;/div&gt;&lt;div&gt;diastole: type integer&lt;/div&gt;&lt;div&gt;pulso: type integer&lt;/div&gt;" style="shape=note;whiteSpace=wrap;html=1;backgroundOutline=1;darkOpacity=0.05;align=left;verticalAlign=middle;" vertex="1" parent="1">
          <mxGeometry x="640" y="280" width="150" height="120" as="geometry" />
        </mxCell>
        <mxCell id="JXhW4Dkfkhgc1lGGschW-10" value="" style="endArrow=circlePlus;startArrow=none;endFill=0;startFill=0;endSize=8;html=1;labelBackgroundColor=none;exitX=0.5;exitY=0;exitDx=0;exitDy=0;exitPerimeter=0;entryX=0.5;entryY=1;entryDx=0;entryDy=0;entryPerimeter=0;" edge="1" parent="1" source="JXhW4Dkfkhgc1lGGschW-9" target="JXhW4Dkfkhgc1lGGschW-8">
          <mxGeometry width="160" relative="1" as="geometry">
            <mxPoint x="632" y="262" as="sourcePoint" />
            <mxPoint x="632" y="212" as="targetPoint" />
          </mxGeometry>
        </mxCell>
        <mxCell id="JXhW4Dkfkhgc1lGGschW-11" value="ProfesionalSalud" style="shape=folder;fontStyle=1;spacingTop=10;tabWidth=40;tabHeight=14;tabPosition=left;html=1;" vertex="1" parent="1">
          <mxGeometry x="140" y="430" width="150" height="50" as="geometry" />
        </mxCell>
        <mxCell id="JXhW4Dkfkhgc1lGGschW-12" value="&lt;span style=&quot;font-family: &amp;#34;helvetica&amp;#34;&quot;&gt;_id: (automatico)&lt;/span&gt;&lt;br&gt;&lt;div&gt;&lt;span&gt;codigo: type integer&lt;/span&gt;&lt;br&gt;&lt;/div&gt;&lt;div&gt;&lt;span&gt;nombre: type string&lt;/span&gt;&lt;/div&gt;&lt;div&gt;&lt;span&gt;apellido: typo string&lt;/span&gt;&lt;/div&gt;&lt;div&gt;&lt;span&gt;especialidad: type String&lt;/span&gt;&lt;/div&gt;&lt;div&gt;&lt;span&gt;nit: type string&lt;/span&gt;&lt;/div&gt;&lt;div&gt;&lt;span&gt;celular: type string&lt;/span&gt;&lt;/div&gt;&lt;div&gt;&lt;br&gt;&lt;/div&gt;" style="shape=note;whiteSpace=wrap;html=1;backgroundOutline=1;darkOpacity=0.05;align=left;verticalAlign=middle;" vertex="1" parent="1">
          <mxGeometry x="140" y="530" width="150" height="180" as="geometry" />
        </mxCell>
        <mxCell id="JXhW4Dkfkhgc1lGGschW-13" value="" style="endArrow=circlePlus;startArrow=none;endFill=0;startFill=0;endSize=8;html=1;labelBackgroundColor=none;exitX=0.5;exitY=0;exitDx=0;exitDy=0;exitPerimeter=0;entryX=0.5;entryY=1;entryDx=0;entryDy=0;entryPerimeter=0;" edge="1" parent="1" source="JXhW4Dkfkhgc1lGGschW-12" target="JXhW4Dkfkhgc1lGGschW-11">
          <mxGeometry width="160" relative="1" as="geometry">
            <mxPoint x="132" y="512" as="sourcePoint" />
            <mxPoint x="132" y="462" as="targetPoint" />
          </mxGeometry>
        </mxCell>
        <mxCell id="JXhW4Dkfkhgc1lGGschW-14" value="&lt;b&gt;&lt;font style=&quot;font-size: 14px&quot;&gt;Diagrama Orientado a Documentos Mongodb&lt;/font&gt;&lt;/b&gt;" style="rounded=1;whiteSpace=wrap;html=1;align=center;verticalAlign=middle;" vertex="1" parent="1">
          <mxGeometry x="300" y="80" width="310" height="30" as="geometry" />
        </mxCell>
      </root>
    </mxGraphModel>
  </diagram>
</mxfile>
